# xmcd
#
# Track frame offsets:
#	150
#	23037
#	29517
#
# Disc length: 643 seconds
#
# Revision: 1
# Processed by: cddbd v1.5PL3 Copyright (c) Steve Scherf et al.
# Submitted via: CDex 1.50Beta5
#
DISCID=1b028103
DTITLE=Cocco - Kemono Michi
DYEAR=2000
DGENRE=Rock -> Japanese Rock
TTITLE0=Kemono Michi
TTITLE1=Mafuyu No Suika
TTITLE2=Tsumetai Te
EXTD=
EXTT0=
EXTT1=
EXTT2=
PLAYORDER=
